# xmcd CD database file
#
# Track frame offsets:
#        150
#        12802
#        25395
#        36567
#        52102
#        65215
#        77030
#        90715
#        104935
#        116377
#        130465
#        141852
#        160987
#        172565
#        183767
#        230002
#        245465
#        256607
#        271557
#        288257
#        300412
#
# Disc length: 4175 seconds
#
# Revision: 0
# Processed by: cddbd v1.5.2PL0 Copyright (c) Steve Scherf et al.
# Submitted via: CUERipper 2.1.5
#
DISCID=1f104d15
DTITLE=Barry Goldberg - Street Man/Blast From My Past
DYEAR=1993
DGENRE=
TTITLE0=i got a woman
TTITLE1=games people play
TTITLE2=bo diddley
TTITLE3=sittin' in circles
TTITLE4=soul man
TTITLE5=tell mama
TTITLE6=hey jude
TTITLE7=sittin' on the dock of the bay
TTITLE8=turn on your love light
TTITLE9=honky tonk
TTITLE10=jimmy the fox
TTITLE11=it hurts me too
TTITLE12=sugar coated love
TTITLE13=maxwell street shuffle
TTITLE14=blues for barry and...
TTITLE15=you're still my baby
TTITLE16=another day
TTITLE17=i think i'm gonna cry
TTITLE18=sittin' in circles
TTITLE19=a lighter blue
TTITLE20=hole in my pocket
EXTD=
EXTT0=
EXTT1=
EXTT2=
EXTT3=
EXTT4=
EXTT5=
EXTT6=
EXTT7=
EXTT8=
EXTT9=
EXTT10=
EXTT11=
EXTT12=
EXTT13=
EXTT14=
EXTT15=
EXTT16=
EXTT17=
EXTT18=
EXTT19=
EXTT20=
PLAYORDER=
